<svg width="100" height="100" viewBox="0 0 100 100" fill="none" xmlns="http://www.w3.org/2000/svg">
  <circle cx="50" cy="50" r="45" fill="#F7931A" />
  <path d="M67.5 43.75C66.25 37.5 60 35 53.75 36.25L51.25 28.75L46.25 30L48.75 37.5C47.5 37.5 46.25 38.75 45 38.75L42.5 31.25L37.5 32.5L40 40C38.75 40 37.5 41.25 36.25 41.25L31.25 42.5L32.5 48.75C32.5 48.75 36.25 47.5 36.25 48.75C37.5 48.75 38.75 50 38.75 51.25L42.5 65C42.5 65 42.5 66.25 41.25 66.25C40 66.25 36.25 67.5 36.25 67.5L38.75 75L43.75 73.75L46.25 66.25C47.5 66.25 48.75 66.25 50 65L47.5 72.5L52.5 71.25L55 63.75C61.25 62.5 66.25 58.75 67.5 52.5C68.75 47.5 66.25 45 62.5 43.75C65 42.5 66.25 41.25 67.5 43.75ZM57.5 57.5C56.25 62.5 48.75 60 45 61.25L41.25 50C45 48.75 52.5 48.75 53.75 53.75C55 56.25 58.75 55 57.5 57.5ZM58.75 43.75C57.5 48.75 51.25 46.25 47.5 47.5L45 37.5C48.75 36.25 53.75 36.25 55 41.25C56.25 43.75 60 41.25 58.75 43.75Z" fill="white" />
</svg> 